<svg width="19" height="20" viewBox="0 0 19 20" fill="none" xmlns="http://www.w3.org/2000/svg">
<path d="M14 19.5872C12.3463 19.5857 10.7183 19.1603 9.26 18.3484L8.81 18.0881C5.70075 16.3478 3.15169 13.694 1.48 10.4571L1.23 9.98864C0.429824 8.46178 0.00712772 6.75166 6.27931e-07 5.01236V4.31484C-0.000208492 4.0401 0.0518166 3.76802 0.153077 3.5143C0.254338 3.26058 0.402832 3.03023 0.590001 2.83654L2.28 1.07922C2.36098 0.994263 2.45963 0.929822 2.56834 0.890878C2.67706 0.851934 2.79291 0.839529 2.90696 0.854622C3.02101 0.869715 3.1302 0.911902 3.22609 0.977923C3.32199 1.04394 3.40202 1.13203 3.46 1.23538L5.71 5.25388C5.82065 5.45279 5.86495 5.68422 5.83601 5.91209C5.80707 6.13995 5.7065 6.35144 5.55 6.51357L3.66 8.48118C3.58356 8.55988 3.53353 8.66214 3.51732 8.77278C3.5011 8.88342 3.51958 8.99656 3.57 9.0954L3.92 9.78251C5.17704 12.2066 7.08926 14.1937 9.42 15.4979L10.08 15.8727C10.175 15.9252 10.2836 15.9444 10.3899 15.9276C10.4962 15.9107 10.5944 15.8586 10.67 15.779L12.56 13.8114C12.7157 13.6485 12.9189 13.5438 13.1378 13.5137C13.3566 13.4835 13.5789 13.5297 13.77 13.6448L17.63 15.9872C17.7293 16.0476 17.8139 16.1309 17.8773 16.2308C17.9407 16.3306 17.9812 16.4443 17.9957 16.563C18.0102 16.6817 17.9983 16.8023 17.9609 16.9155C17.9235 17.0287 17.8616 17.1314 17.78 17.2157L16.09 18.9751C15.9039 19.1699 15.6827 19.3245 15.439 19.43C15.1953 19.5354 14.9339 19.5895 14.67 19.5893L14 19.5872Z" fill="#030303"/>
</svg>
