<svg width="19" height="19" viewBox="0 0 19 19" fill="none" xmlns="http://www.w3.org/2000/svg">
<path d="M14 18.9978C12.3463 18.9963 10.7183 18.5876 9.26 17.8078L8.81 17.5578C5.70075 15.8861 3.15169 13.337 1.48 10.2278L1.23 9.77777C0.429824 8.31115 0.00712772 6.66847 6.27931e-07 4.99778V4.32778C-0.000208492 4.06386 0.0518166 3.80252 0.153077 3.55881C0.254338 3.31509 0.402832 3.09383 0.590001 2.90778L2.28 1.21978C2.36098 1.13817 2.45963 1.07627 2.56834 1.03886C2.67706 1.00145 2.79291 0.989536 2.90696 1.00403C3.02101 1.01853 3.1302 1.05905 3.22609 1.12247C3.32199 1.18589 3.40202 1.2705 3.46 1.36978L5.71 5.22978C5.82065 5.42083 5.86495 5.64314 5.83601 5.86202C5.80707 6.0809 5.7065 6.28404 5.55 6.43978L3.66 8.32978C3.58356 8.40537 3.53353 8.5036 3.51732 8.60987C3.5011 8.71615 3.51958 8.82483 3.57 8.91978L3.92 9.57977C5.17704 11.9082 7.08926 13.817 9.42 15.0698L10.08 15.4298C10.175 15.4802 10.2836 15.4987 10.3899 15.4825C10.4962 15.4662 10.5944 15.4162 10.67 15.3398L12.56 13.4498C12.7157 13.2933 12.9189 13.1927 13.1378 13.1638C13.3566 13.1348 13.5789 13.1791 13.77 13.2898L17.63 15.5398C17.7293 15.5978 17.8139 15.6778 17.8773 15.7737C17.9407 15.8696 17.9812 15.9788 17.9957 16.0928C18.0102 16.2069 17.9983 16.3227 17.9609 16.4314C17.9235 16.5401 17.8616 16.6388 17.78 16.7198L16.09 18.4098C15.9039 18.5969 15.6827 18.7454 15.439 18.8467C15.1953 18.948 14.9339 19 14.67 18.9998L14 18.9978Z" fill="#ACACAC"/>
</svg>
