<svg width="24" height="24" viewBox="0 0 24 24" fill="none" xmlns="http://www.w3.org/2000/svg">
<path d="M18 13.5L22.5 12V19.5L18 18V20.25C18 20.4489 17.921 20.6397 17.7803 20.7803C17.6397 20.921 17.4489 21 17.25 21H2.25C2.05109 21 1.86032 20.921 1.71967 20.7803C1.57902 20.6397 1.5 20.4489 1.5 20.25V11.25C1.5 11.0511 1.57902 10.8603 1.71967 10.7197C1.86032 10.579 2.05109 10.5 2.25 10.5H17.25C17.4489 10.5 17.6397 10.579 17.7803 10.7197C17.921 10.8603 18 11.0511 18 11.25V13.5ZM4.5 18V19.5H13.5V18H4.5ZM9 6.75C9 5.75544 9.39509 4.80161 10.0983 4.09835C10.8016 3.39509 11.7554 3 12.75 3C13.7446 3 14.6984 3.39509 15.4017 4.09835C16.1049 4.80161 16.5 5.75544 16.5 6.75C16.5 7.74456 16.1049 8.69839 15.4017 9.40165C14.6984 10.1049 13.7446 10.5 12.75 10.5C11.7554 10.5 10.8016 10.1049 10.0983 9.40165C9.39509 8.69839 9 7.74456 9 6.75ZM10.5 6.75C10.5002 7.34694 10.7375 7.91934 11.1598 8.3413C11.582 8.76326 12.1546 9.0002 12.7515 9C13.3484 8.9998 13.9208 8.76248 14.3428 8.34024C14.7648 7.918 15.0017 7.34544 15.0015 6.7485C15.0013 6.15156 14.764 5.57916 14.3417 5.1572C13.9195 4.73524 13.3469 4.4983 12.75 4.4985C12.1531 4.4987 11.5807 4.73602 11.1587 5.15826C10.7367 5.5805 10.4998 6.15306 10.5 6.75ZM3 7.5C3.0001 7.10594 3.07781 6.71575 3.22871 6.35172C3.3796 5.98769 3.60071 5.65694 3.87943 5.37837C4.15814 5.09979 4.489 4.87884 4.85311 4.72813C5.21721 4.57742 5.60744 4.4999 6.0015 4.5C6.39556 4.5001 6.78575 4.57781 7.14978 4.72871C7.51381 4.8796 7.84455 5.10071 8.12313 5.37943C8.40171 5.65814 8.62266 5.989 8.77337 6.35311C8.92408 6.71721 9.0016 7.10744 9.0015 7.5015C9.0013 8.29735 8.68496 9.06052 8.12207 9.62313C7.55918 10.1857 6.79585 10.5017 6 10.5015C5.20415 10.5013 4.44098 10.185 3.87837 9.62207C3.31576 9.05918 2.9998 8.29585 3 7.5ZM4.5 7.5C4.5 7.89782 4.65804 8.27936 4.93934 8.56066C5.22064 8.84196 5.60218 9 6 9C6.39782 9 6.77936 8.84196 7.06066 8.56066C7.34196 8.27936 7.5 7.89782 7.5 7.5C7.5 7.10218 7.34196 6.72064 7.06066 6.43934C6.77936 6.15804 6.39782 6 6 6C5.60218 6 5.22064 6.15804 4.93934 6.43934C4.65804 6.72064 4.5 7.10218 4.5 7.5Z" fill="#727272"/>
</svg>
