<svg width="27" height="27" viewBox="0 0 27 27" fill="none" xmlns="http://www.w3.org/2000/svg">
<path d="M11.4358 12.0659L11.2297 23.8125H17M17 23.8125L13.9088 12.6842L17 23.8125Z" fill="#727272"/>
<path d="M11.4358 12.0659L11.2297 23.8125H17L13.9088 12.6842" stroke="#727272" stroke-width="1.4" stroke-linecap="round" stroke-linejoin="round"/>
<path d="M11.4358 12.0658V5.47124V12.0658ZM13.9088 12.6841L15.1453 5.05908L13.9088 12.6841Z" fill="#727272"/>
<path d="M11.4358 12.0658V5.47124M13.9088 12.6841L15.1453 5.05908" stroke="#727272" stroke-width="1.4"/>
<path d="M17 14L16.0303 5L11.4242 5.78261L9 8.91304L11.4242 11.8478" stroke="#727272" stroke-width="1.4" stroke-linecap="round" stroke-linejoin="round"/>
<path d="M13.4967 3.41047C14.1796 3.41047 14.7332 2.85688 14.7332 2.17399C14.7332 1.49109 14.1796 0.9375 13.4967 0.9375C12.8138 0.9375 12.2603 1.49109 12.2603 2.17399C12.2603 2.85688 12.8138 3.41047 13.4967 3.41047Z" stroke="#727272" stroke-width="1.4"/>
</svg>
