<svg width="20" height="16" viewBox="0 0 20 16" fill="none" xmlns="http://www.w3.org/2000/svg">
<path d="M18 16H2C1.46957 16 0.960859 15.7893 0.585786 15.4142C0.210714 15.0391 0 14.5304 0 14V2C0 1.46957 0.210714 0.960859 0.585786 0.585786C0.960859 0.210714 1.46957 0 2 0L18 0C18.5304 0 19.0391 0.210714 19.4142 0.585786C19.7893 0.960859 20 1.46957 20 2V14C20 14.5304 19.7893 15.0391 19.4142 15.4142C19.0391 15.7893 18.5304 16 18 16ZM2 4.9V7L8.35 11.45C8.83366 11.7884 9.40969 11.97 10 11.97C10.5903 11.97 11.1663 11.7884 11.65 11.45L18 7V4.9L10.65 10.05C10.4591 10.1823 10.2323 10.2532 10 10.2532C9.7677 10.2532 9.54093 10.1823 9.35 10.05L2 4.9Z" fill="#ACACAC"/>
</svg>
