<svg width="17" height="19" viewBox="0 0 17 19" fill="none" xmlns="http://www.w3.org/2000/svg">
<path d="M12.277 18.5875H4.723C3.47079 18.5861 2.27024 18.0676 1.3848 17.1458C0.499349 16.224 0.00132355 14.9742 0 13.6705L0 5.80634C0.00132355 4.50271 0.499349 3.25287 1.3848 2.33106C2.27024 1.40926 3.47079 0.890782 4.723 0.889404L12.278 0.889404C13.53 0.891058 14.7303 1.40965 15.6156 2.33143C16.5008 3.25321 16.9987 4.50289 17 5.80634V13.6716C16.9984 14.975 16.5003 16.2246 15.6149 17.1462C14.7294 18.0678 13.529 18.5861 12.277 18.5875ZM4.723 2.60924C3.91032 2.61443 3.13235 2.95282 2.55769 3.55108C1.98303 4.14933 1.65798 4.95926 1.653 5.8053V13.6705C1.65798 14.5166 1.98303 15.3265 2.55769 15.9248C3.13235 16.523 3.91032 16.8614 4.723 16.8666H12.278C13.0907 16.8614 13.8687 16.523 14.4433 15.9248C15.018 15.3265 15.343 14.5166 15.348 13.6705V5.80634C15.343 4.9603 15.018 4.15038 14.4433 3.55212C13.8687 2.95386 13.0907 2.61547 12.278 2.61028L4.723 2.60924ZM8.5 14.163C7.37283 14.163 6.29183 13.6968 5.4948 12.867C4.69777 12.0373 4.25 10.9119 4.25 9.73844C4.25 8.56498 4.69777 7.43959 5.4948 6.60983C6.29183 5.78007 7.37283 5.31392 8.5 5.31392H8.51C9.63717 5.3153 10.7176 5.78278 11.5137 6.61351C12.3098 7.44425 12.7563 8.57019 12.755 9.74364C12.7537 10.9171 12.3046 12.0419 11.5067 12.8707C10.7087 13.6995 9.62717 14.1643 8.5 14.163ZM8.5 7.03167C7.98577 7.03167 7.48309 7.19042 7.05552 7.48785C6.62795 7.78527 6.2947 8.20801 6.09791 8.7026C5.90113 9.1972 5.84964 9.74144 5.94996 10.2665C6.05028 10.7916 6.29791 11.2739 6.66152 11.6524C7.02514 12.031 7.48841 12.2887 7.99276 12.3932C8.49712 12.4976 9.01989 12.444 9.49498 12.2392C9.97007 12.0343 10.3761 11.6874 10.6618 11.2422C10.9475 10.7971 11.1 10.2738 11.1 9.73844C11.1 9.02056 10.8261 8.33208 10.3385 7.82447C9.85088 7.31685 9.18956 7.03167 8.5 7.03167ZM12.986 6.04891C12.7993 6.04891 12.6168 5.99127 12.4615 5.88329C12.3063 5.7753 12.1853 5.62181 12.1139 5.44224C12.0424 5.26266 12.0237 5.06506 12.0601 4.87442C12.0966 4.68378 12.1865 4.50867 12.3185 4.37123C12.4505 4.23379 12.6187 4.14019 12.8018 4.10227C12.985 4.06435 13.1748 4.08381 13.3473 4.15819C13.5197 4.23258 13.6672 4.35854 13.7709 4.52015C13.8746 4.68177 13.93 4.87178 13.93 5.06615C13.9301 5.19534 13.9058 5.3233 13.8584 5.44271C13.8111 5.56213 13.7416 5.67066 13.6539 5.76211C13.5663 5.85356 13.4622 5.92614 13.3476 5.97571C13.233 6.02527 13.1101 6.05086 12.986 6.05099V6.04891Z" fill="#030303"/>
</svg>
