<svg width="24" height="24" viewBox="0 0 24 24" fill="none" xmlns="http://www.w3.org/2000/svg">
<path fill-rule="evenodd" clip-rule="evenodd" d="M17.6571 6.9995C18.324 6.9995 18.9635 6.73613 19.435 6.26734C19.9065 5.79855 20.1714 5.16272 20.1714 4.49975C20.1714 3.83677 19.9065 3.20095 19.435 2.73216C18.9635 2.26337 18.324 2 17.6571 2C16.9903 2 16.3508 2.26337 15.8793 2.73216C15.4078 3.20095 15.1429 3.83677 15.1429 4.49975C15.1429 5.16272 15.4078 5.79855 15.8793 6.26734C16.3508 6.73613 16.9903 6.9995 17.6571 6.9995ZM20.993 15.2924C21.3575 16.4736 21.8151 17.7128 22.1005 18.4609C22.1335 18.5461 22.1473 18.6376 22.1409 18.7287C22.1344 18.8199 22.1079 18.9085 22.0633 18.9884C22.0186 19.0683 21.9569 19.1374 21.8824 19.191C21.8079 19.2445 21.7225 19.2811 21.6322 19.2983C18.7798 19.8201 16.8155 19.8063 13.716 19.2901C13.6231 19.2737 13.5351 19.237 13.4583 19.1825C13.3814 19.128 13.3178 19.0572 13.272 18.9752C13.2262 18.8932 13.1993 18.8021 13.1934 18.7084C13.1875 18.6148 13.2026 18.5211 13.2377 18.434C13.5337 17.6903 13.997 16.4761 14.3565 15.2968C13.215 15.1843 12.3143 13.8632 12.3143 12.2496C12.3143 10.5623 13.2993 9.19366 14.5143 9.19366H14.5225C14.506 9.0761 14.5151 8.95641 14.5491 8.84266C14.5832 8.7289 14.6414 8.62372 14.7198 8.53423C14.7982 8.44473 14.895 8.37299 15.0036 8.32385C15.1123 8.27471 15.2303 8.24931 15.3497 8.24937H19.9653C20.0847 8.24938 20.2027 8.27487 20.3114 8.32412C20.4201 8.37337 20.5169 8.44524 20.5953 8.53487C20.6736 8.6245 20.7317 8.72981 20.7656 8.84367C20.7995 8.95754 20.8085 9.07731 20.7918 9.19491H20.8C22.015 9.19491 23 10.5629 23 12.2502C23 13.8469 22.1175 15.1581 20.993 15.2937V15.2924ZM15.7475 11.6922C16.0021 11.1285 16.0857 10.2798 16.0857 9.18678H17.3429C17.3429 10.2804 17.2693 11.3728 16.8953 12.2034C16.7005 12.6339 16.4157 13.0183 15.9996 13.2907C15.5822 13.5645 15.0825 13.6926 14.5143 13.6926V12.4427C14.8889 12.4427 15.1353 12.3602 15.3075 12.2471C15.481 12.134 15.6281 11.9584 15.7475 11.6922ZM19.2286 9.18678C19.2286 10.2804 19.3122 11.1285 19.5667 11.6922C19.6862 11.9584 19.8333 12.134 20.0067 12.2471C20.179 12.3596 20.4254 12.4433 20.8 12.4433V13.6932C20.2318 13.6932 19.7314 13.5638 19.3147 13.2907C18.8986 13.0183 18.6138 12.6339 18.419 12.2034C18.045 11.3722 17.9714 10.281 17.9714 9.18678H19.2286ZM14.8286 20.2176V21.0606C14.8288 21.2878 14.912 21.5071 15.0627 21.6778C15.2134 21.8486 15.4213 21.9592 15.6478 21.9889C15.8743 22.0187 16.104 21.9657 16.2941 21.8398C16.4843 21.7139 16.622 21.5236 16.6816 21.3043L16.9299 20.3894C16.2272 20.3644 15.526 20.307 14.8286 20.2176ZM19.0029 20.3538L19.2606 21.3049C19.3198 21.5248 19.4575 21.7158 19.6479 21.8422C19.8383 21.9686 20.0684 22.0218 20.2954 21.9919C20.5223 21.9619 20.7306 21.851 20.8813 21.6796C21.0319 21.5082 21.1148 21.2882 21.1143 21.0606V20.1232C20.4139 20.2282 19.7095 20.3047 19.0029 20.3538ZM5.994 6.9995C6.66083 6.9995 7.30035 6.73613 7.77187 6.26734C8.24339 5.79855 8.50829 5.16272 8.50829 4.49975C8.50829 3.83677 8.24339 3.20095 7.77187 2.73216C7.30035 2.26337 6.66083 2 5.994 2C5.32717 2 4.68765 2.26337 4.21613 2.73216C3.74461 3.20095 3.47971 3.83677 3.47971 4.49975C3.47971 5.16272 3.74461 5.79855 4.21613 6.26734C4.68765 6.73613 5.32717 6.9995 5.994 6.9995ZM8.30714 21.9955C8.62632 21.9756 8.92588 21.8356 9.14484 21.6038C9.3638 21.3721 9.4857 21.0661 9.48571 20.7481V15.3105C10.7265 15.1231 11.6863 13.8369 11.6863 12.2783C11.6863 10.6723 10.6681 9.35614 9.37257 9.2324C9.43845 9.13872 9.47723 9.02886 9.48467 8.91479C9.49212 8.80071 9.46795 8.6868 9.41481 8.58543C9.36166 8.48406 9.28156 8.39913 9.18323 8.33988C9.08491 8.28063 8.97212 8.24932 8.85714 8.24937H3.82857C3.71359 8.24932 3.60081 8.28063 3.50248 8.33988C3.40415 8.39913 3.32406 8.48406 3.27091 8.58543C3.21776 8.6868 3.19359 8.80071 3.20104 8.91479C3.20849 9.02886 3.24726 9.13872 3.31314 9.2324C2.01829 9.35739 1 10.6729 1 12.2783C1 13.8363 1.95983 15.1218 3.2 15.3099V20.7481C3.20067 21.0653 3.32258 21.3703 3.54104 21.6014C3.7595 21.8326 4.05816 21.9725 4.37651 21.9928C4.69485 22.0132 5.00907 21.9124 5.25549 21.711C5.50191 21.5096 5.6621 21.2226 5.7036 20.9081L6.21149 16.9985H6.49057L6.98086 20.9031C7.02055 21.2188 7.17985 21.5076 7.42629 21.7106C7.67273 21.9136 7.98775 22.0155 8.30714 21.9955ZM4.15983 11.7928C4.41943 11.2603 4.52314 10.4173 4.52314 9.22303H5.78029C5.78029 10.4229 5.68789 11.524 5.29189 12.3377C5.08509 12.7614 4.78903 13.1245 4.3704 13.3757C3.95491 13.6257 3.46651 13.737 2.92029 13.737V12.4871C3.29429 12.4871 3.54446 12.4121 3.71983 12.3058C3.89269 12.2027 4.03914 12.0421 4.15983 11.7928ZM8.02303 9.22303C8.02303 10.4167 8.12674 11.2603 8.38634 11.7928C8.50766 12.0421 8.65411 12.2021 8.82634 12.3065C9.00234 12.4115 9.25189 12.4877 9.62589 12.4877V13.7376C9.08029 13.7376 8.59126 13.6251 8.17577 13.3757C7.75777 13.1245 7.46109 12.7614 7.25491 12.3377C6.85891 11.524 6.76589 10.4223 6.76589 9.22303H8.02303Z" fill="#727272"/>
</svg>
