<svg width="22" height="18" viewBox="0 0 22 18" fill="none" xmlns="http://www.w3.org/2000/svg">
<path d="M20.375 3.75H16.4844C16.3438 3.75 16.1694 3.65906 16.0334 3.51562L14.7547 1.50937C14.2344 0.75 14 0.75 13.1562 0.75H8.84375C8 0.75 7.71875 0.75 7.24672 1.50984L5.96656 3.51562C5.8625 3.62906 5.71625 3.75 5.5625 3.75V3C5.5625 2.90054 5.52299 2.80516 5.45267 2.73484C5.38234 2.66451 5.28696 2.625 5.1875 2.625H3.3125C3.21304 2.625 3.11766 2.66451 3.04734 2.73484C2.97701 2.80516 2.9375 2.90054 2.9375 3V3.75H1.625C1.32663 3.75 1.04048 3.86853 0.829505 4.0795C0.618526 4.29048 0.5 4.57663 0.5 4.875V16.125C0.5 16.4234 0.618526 16.7095 0.829505 16.9205C1.04048 17.1315 1.32663 17.25 1.625 17.25H20.375C20.6734 17.25 20.9595 17.1315 21.1705 16.9205C21.3815 16.7095 21.5 16.4234 21.5 16.125V4.875C21.5 4.57663 21.3815 4.29048 21.1705 4.0795C20.9595 3.86853 20.6734 3.75 20.375 3.75ZM11.2114 14.2453C10.3044 14.2879 9.40571 14.0551 8.63344 13.5776C7.86117 13.1 7.25144 12.3999 6.88437 11.5694C6.51729 10.7389 6.41005 9.81679 6.57674 8.92421C6.74342 8.03163 7.17623 7.21035 7.81829 6.56829C8.46035 5.92623 9.28163 5.49342 10.1742 5.32674C11.0668 5.16005 11.9889 5.26729 12.8194 5.63437C13.6499 6.00144 14.35 6.61117 14.8276 7.38344C15.3051 8.15571 15.5379 9.05439 15.4953 9.96141C15.4416 11.0802 14.973 12.1389 14.181 12.931C13.3889 13.723 12.3302 14.1916 11.2114 14.2453Z" fill="#727272"/>
</svg>
