<svg width="25" height="25" viewBox="0 0 25 25" fill="none" xmlns="http://www.w3.org/2000/svg">
<g clip-path="url(#clip0_0_188)">
<path d="M7.22115 0.526367C6.89162 0.854492 6.32912 1.42824 5.71787 2.14824C6.91459 2.30293 8.3649 2.66809 9.70084 3.07449C10.5821 3.34262 11.4071 3.62809 12.054 3.89059C12.3821 4.02184 12.6633 4.1484 12.893 4.2609C13.1227 4.37809 13.2868 4.46715 13.4368 4.61715L12.8462 5.21715C12.8415 5.21246 12.7055 5.11402 12.5087 5.01559C12.3165 4.91715 12.0493 4.79996 11.7399 4.6734C11.1212 4.42496 10.3149 4.14371 9.45709 3.88121C7.93834 3.41996 6.22787 3.02152 5.08646 2.93246C4.65803 3.49824 4.27084 4.08746 4.02146 4.61246C6.9849 5.26402 10.3102 6.49215 12.1524 8.32965L12.3118 8.48902L12.2649 8.71402C12.2649 8.71402 12.1243 9.4359 12.1243 10.2984C12.1243 11.1609 12.3024 12.1171 12.7571 12.5718C13.2118 13.0312 14.1727 13.2093 15.0352 13.2093C15.8977 13.2093 16.6196 13.0687 16.6196 13.0687L16.8446 13.0218L17.004 13.1812C18.8415 15.0234 20.0696 18.3421 20.7212 21.3093C21.2462 21.0609 21.8321 20.6718 22.3993 20.2453C22.3102 19.1015 21.9165 17.3953 21.4524 15.8812C21.1899 15.0187 20.9087 14.2125 20.6602 13.5937C20.5337 13.2843 20.4165 13.0171 20.318 12.825C20.2196 12.6281 20.1212 12.4921 20.1165 12.4875L20.7165 11.8968C20.8665 12.0468 20.9555 12.2109 21.0727 12.4406C21.1852 12.6703 21.3118 12.9515 21.443 13.2796C21.7055 13.9265 21.9915 14.7515 22.2587 15.6328C22.6618 16.964 23.0274 18.4171 23.1821 19.6171C23.904 19.0031 24.4758 18.4406 24.804 18.1125C24.2087 15.0796 23.5805 11.0156 21.8696 8.16559L21.7852 8.02496L21.818 7.86559C21.818 7.86559 21.9587 7.14371 21.9633 6.28121C21.9633 5.89215 21.9258 5.48434 21.8462 5.10934C21.9212 5.62496 21.8368 6.20621 21.6399 6.79684C21.2837 7.86559 20.543 9.0234 19.5024 10.0687C18.4571 11.1093 17.2993 11.85 16.2305 12.2062C15.1618 12.5625 14.1118 12.5484 13.4462 11.8828C12.7852 11.2218 12.7665 10.1671 13.1274 9.10309C13.479 8.03434 14.2196 6.87652 15.2649 5.83121C16.3102 4.7859 17.4633 4.04527 18.5368 3.69371C19.1133 3.4973 19.6899 3.41387 20.1962 3.4823C19.8305 3.40496 19.4321 3.37027 19.0524 3.37027C18.1899 3.37027 17.468 3.51371 17.468 3.51371L17.304 3.54559L17.168 3.46168C14.3133 1.7484 10.254 1.12262 7.22115 0.526367ZM19.8446 4.30777C19.5446 4.30309 19.193 4.36402 18.7993 4.49527C18.1337 4.71559 17.379 5.13746 16.643 5.72809C16.8821 5.58277 17.1212 5.4609 17.3555 5.36246C17.7258 5.21246 18.0774 5.1234 18.4102 5.11871C18.7477 5.11871 19.0899 5.21246 19.3337 5.4609C19.4133 5.54059 19.4743 5.62496 19.5258 5.71871C19.104 5.5359 18.6118 5.63434 18.2883 5.95777C17.8477 6.3984 17.8477 7.1109 18.2883 7.55152C18.5368 7.79527 18.879 7.91246 19.2258 7.87027C18.9071 8.47965 18.429 9.11715 17.8243 9.71715C17.079 10.4671 16.2774 11.0203 15.5462 11.325C15.218 11.4609 14.904 11.5453 14.5993 11.5593C14.9555 11.6296 15.4149 11.5875 15.9633 11.4046C16.8727 11.1046 17.9415 10.4343 18.9024 9.46871C19.868 8.50309 20.5383 7.43902 20.8383 6.52965C21.1383 5.62496 21.0633 4.94996 20.7212 4.61246C20.529 4.42027 20.229 4.31246 19.8446 4.30777ZM3.84803 5.28746C3.82553 5.52652 3.87287 5.87809 4.0374 6.3234C4.28068 6.98902 4.74334 7.82809 5.36631 8.74684C6.61178 10.589 8.49146 12.7734 10.5258 14.8031C12.5555 16.8375 14.7399 18.7171 16.5821 19.964C17.5008 20.5875 18.3399 21.0468 19.0055 21.2906C19.4508 21.4546 19.8024 21.5015 20.0415 21.4781C19.8024 20.3859 19.4743 19.2375 19.0712 18.1406C16.7602 16.7718 14.7165 15.239 12.8883 13.4953C12.668 13.3781 12.4571 13.2328 12.2743 13.05C12.0936 12.8689 11.9433 12.66 11.829 12.4312C10.0852 10.6078 8.55709 8.56402 7.18834 6.25777C6.09334 5.84996 4.94209 5.52184 3.84803 5.28746ZM8.50553 6.79215C9.40084 8.21246 10.3665 9.52027 11.4118 10.7296C11.4024 10.5421 11.3977 10.3546 11.3977 10.1765C11.3977 9.44059 11.4774 8.92027 11.5196 8.66715C10.7649 7.96402 9.70553 7.33121 8.50553 6.79215ZM16.6618 13.8093C16.4087 13.8515 15.8883 13.9312 15.1524 13.9312C14.9743 13.9312 14.7868 13.9265 14.5946 13.9125C15.8087 14.9625 17.1165 15.9281 18.5368 16.8234C17.9977 15.6281 17.3649 14.564 16.6618 13.8093Z" fill="#727272"/>
<path d="M4.02682 22.0148C4.14864 22.173 4.3624 22.4438 4.6358 22.7434C4.76689 22.2421 5.00145 21.6444 5.24735 21.0975C5.40957 20.7368 5.57612 20.401 5.72318 20.1398C5.79696 20.0072 5.86619 19.8943 5.92663 19.8026C5.98906 19.7112 6.03594 19.6462 6.108 19.5905L6.33141 19.8747C6.32916 19.8765 6.27982 19.929 6.22716 20.0075C6.17476 20.084 6.11029 20.1914 6.03952 20.3162C5.89999 20.5662 5.73626 20.8943 5.57771 21.2453C5.29849 21.867 5.03558 22.5738 4.93546 23.055C5.15312 23.2683 5.38302 23.4653 5.59307 23.6002C6.03206 22.3735 6.73637 21.0242 7.61946 20.3398L7.69603 20.2806L7.78932 20.3128C7.78932 20.3128 8.08915 20.412 8.45656 20.459C8.82396 20.506 9.241 20.4823 9.45945 20.3134C9.6799 20.1448 9.80813 19.7452 9.85512 19.3779C9.90211 19.0106 9.88153 18.6955 9.88153 18.6955L9.87382 18.5971L9.95039 18.5379C10.8352 17.8557 12.3158 17.5135 13.6153 17.3976C13.538 17.1605 13.4042 16.8898 13.2534 16.625C12.7614 16.6006 12.0131 16.6753 11.3429 16.7904C10.9612 16.8552 10.6024 16.9311 10.3253 17.0032C10.1866 17.0402 10.0664 17.0756 9.97919 17.107C9.88996 17.1382 9.82669 17.1727 9.82444 17.1745L9.60554 16.8868C9.67761 16.8311 9.75235 16.8021 9.85657 16.7647C9.96054 16.7293 10.0872 16.6907 10.2342 16.6527C10.524 16.5761 10.891 16.4993 11.281 16.4335C11.87 16.3344 12.5089 16.2578 13.0285 16.2573C12.8063 15.9164 12.5978 15.6422 12.4759 15.4846C11.1516 15.5729 9.38618 15.619 8.07895 16.1923L8.01445 16.2206L7.94835 16.198C7.94835 16.198 7.64851 16.0987 7.28137 16.0497C7.11564 16.0285 6.93988 16.0223 6.7758 16.0358C6.99953 16.0319 7.24253 16.0996 7.48339 16.2156C7.91924 16.4255 8.37209 16.8041 8.76067 17.3042C9.147 17.8061 9.39941 18.3396 9.49294 18.8142C9.58646 19.2887 9.52327 19.7352 9.20347 19.9824C8.88592 20.2279 8.43563 20.1784 8.00204 19.9667C7.56593 19.7587 7.11308 19.3802 6.72476 18.878C6.33643 18.3759 6.08377 17.8444 5.99249 17.3681C5.94024 17.1118 5.9361 16.8617 5.99284 16.6499C5.93997 16.8014 5.90349 16.9692 5.8828 17.1309C5.83582 17.4982 5.85759 17.8135 5.85759 17.8135L5.86223 17.8851L5.81908 17.9384C4.93375 19.0608 4.44604 20.7556 4.02682 22.0148ZM6.32531 16.8446C6.30697 16.9721 6.31378 17.1251 6.34823 17.3C6.40582 17.5955 6.54441 17.9399 6.75591 18.2855C6.70703 18.1758 6.66814 18.0673 6.63898 17.9621C6.59526 17.7962 6.57647 17.6416 6.5926 17.4997C6.61099 17.3559 6.66957 17.2153 6.78868 17.125C6.82696 17.0954 6.86622 17.0741 6.90897 17.0572C6.80811 17.2269 6.82323 17.4419 6.94338 17.5973C7.10707 17.8089 7.41058 17.8478 7.62228 17.6841C7.73964 17.5916 7.8082 17.4522 7.80913 17.3022C8.05134 17.4712 8.29685 17.7095 8.51949 17.9998C8.79837 18.3581 8.99031 18.7296 9.08026 19.0576C9.12029 19.2048 9.13912 19.3431 9.12852 19.4737C9.17788 19.3258 9.18493 19.1278 9.13694 18.8843C9.05869 18.4806 8.83138 17.9889 8.4724 17.5271C8.11367 17.0632 7.69693 16.7197 7.32591 16.5424C6.95688 16.3653 6.66526 16.3605 6.50285 16.4878C6.41052 16.5592 6.34825 16.6811 6.32531 16.8446ZM5.87115 23.7108C5.97176 23.7334 6.1241 23.7324 6.32275 23.6866C6.61954 23.6193 7.00216 23.4679 7.42747 23.2527C8.28004 22.8226 9.31292 22.1411 10.2883 21.3853C11.2655 20.6317 12.1852 19.8038 12.8167 19.0871C13.1323 18.7298 13.3737 18.3975 13.5138 18.1273C13.608 17.9466 13.6471 17.7994 13.6501 17.6963C13.1718 17.7386 12.6648 17.8158 12.1756 17.9277C11.4666 18.8373 10.7023 19.6242 9.85996 20.3078C9.79804 20.3953 9.72465 20.4772 9.63682 20.5451C9.54985 20.6121 9.45267 20.6648 9.34899 20.701C8.47725 21.3443 7.52342 21.8838 6.46646 22.3411C6.23309 22.7852 6.03059 23.2576 5.87115 23.7108ZM6.76584 21.8092C7.41963 21.5053 8.02933 21.1653 8.60144 20.786C8.52106 20.7798 8.44093 20.7715 8.36506 20.7618C8.05157 20.7217 7.83427 20.6594 7.72875 20.6277C7.38812 20.9108 7.06085 21.3275 6.76584 21.8092ZM10.1993 18.7178C10.2035 18.8279 10.2091 19.0539 10.169 19.3673C10.1593 19.4432 10.1471 19.5228 10.1306 19.6039C10.644 19.144 11.1266 18.6396 11.5854 18.0835C11.0468 18.248 10.5591 18.4595 10.1993 18.7178Z" fill="#727272"/>
</g>
<defs>
<clipPath id="clip0_0_188">
<rect width="24" height="24" fill="white" transform="translate(0.842773 0.526367)"/>
</clipPath>
</defs>
</svg>
